<?xml version="1.0" encoding="UTF-8"?>
<svg version="1.1" xmlns="http://www.w3.org/2000/svg" width="275" height="183">
<path d="M0 0 C90.75 0 181.5 0 275 0 C275 60.39 275 120.78 275 183 C184.25 183 93.5 183 0 183 C0 122.61 0 62.22 0 0 Z " fill="#FEFEFE" transform="translate(0,0)"/>
<path d="M0 0 C0.96061844 0.00007553 1.92123688 0.00015106 2.91096497 0.00022888 C4.44716743 0.00797081 4.44716743 0.00797081 6.0144043 0.01586914 C7.07273972 0.01728409 8.13107513 0.01869904 9.22148132 0.02015686 C12.59389093 0.0257438 15.96623358 0.03829395 19.33862305 0.05102539 C21.62833563 0.05604208 23.91804925 0.06060469 26.20776367 0.06469727 C31.81390622 0.07570896 37.42000985 0.09243413 43.02612305 0.11352539 C42.72364655 0.71665558 42.42117004 1.31978577 42.10952759 1.94119263 C41.2926905 3.5790314 40.48896395 5.22341834 39.69165039 6.87084961 C37.73571719 10.22411808 35.9926832 12.58775862 33.02612305 15.11352539 C27.20782556 16.59533339 21.61656209 16.43395134 15.65112305 16.23852539 C13.30018835 16.21544401 10.94950842 16.2074427 8.59848022 16.19992065 C7.14262255 16.18937748 5.68679034 16.1664798 4.23135376 16.12991333 C0.50617824 15.97108839 0.50617824 15.97108839 -2.97387695 17.11352539 C-2.97387695 19.09352539 -2.97387695 21.07352539 -2.97387695 23.11352539 C-2.20833496 23.12810791 -1.44279297 23.14269043 -0.65405273 23.15771484 C2.86480873 23.23287241 6.38279075 23.32930775 9.90112305 23.42602539 C11.10510742 23.44858398 12.3090918 23.47114258 13.54956055 23.49438477 C30.32656421 23.99587129 30.32656421 23.99587129 35.70556641 28.52880859 C39.65084372 33.04933729 40.33051825 37.01278081 40.23706055 42.76977539 C39.77815147 47.86876519 37.91008884 51.60763864 34.08862305 54.92602539 C26.5881678 60.28349343 19.5728302 60.25977829 10.59643555 60.21118164 C9.11093704 60.20905922 9.11093704 60.20905922 7.59542847 60.20689392 C4.44729531 60.20131791 1.29923453 60.18876981 -1.84887695 60.17602539 C-3.98950092 60.17100729 -6.13012601 60.16644493 -8.27075195 60.16235352 C-13.50515145 60.15135633 -18.73950903 60.13464214 -23.97387695 60.11352539 C-23.36511215 59.20867149 -23.36511215 59.20867149 -22.74404907 58.28553772 C-22.20839325 57.48635422 -21.67273743 56.68717072 -21.12084961 55.86376953 C-20.59125641 55.0749086 -20.06166321 54.28604767 -19.51602173 53.47328186 C-18.53934111 51.97878637 -17.59434132 50.46268521 -16.69497681 48.92042542 C-15.33218131 46.61983322 -14.27645875 45.50939375 -11.97387695 44.11352539 C-6.50966039 43.11213662 -1.1382902 43.13215718 4.40112305 43.17602539 C5.9154766 43.16290639 7.4298065 43.14666151 8.9440918 43.12719727 C12.63852052 43.08648766 16.33148788 43.08845443 20.02612305 43.11352539 C20.40831072 41.45737882 20.74007406 39.78895515 21.02612305 38.11352539 C19.29809633 36.38549868 16.94689681 36.96358363 14.5925293 36.93774414 C13.46782227 36.91389648 12.34311523 36.89004883 11.18432617 36.86547852 C8.82251969 36.82314304 6.46049134 36.7915559 4.09838867 36.77172852 C-3.63278971 36.58316319 -11.59187047 35.9751368 -17.65551758 30.6315918 C-21.7385542 25.95804528 -22.39232031 21.73254752 -22.3137207 15.75024414 C-21.6632488 10.70347936 -19.24324111 6.89696647 -15.2590332 3.76586914 C-10.33051734 0.75699403 -5.66956566 -0.01495928 0 0 Z " fill="#CB0506" transform="translate(101.973876953125,60.886474609375)"/>
<path d="M0 0 C1.42527763 0.00848969 1.42527763 0.00848969 2.87934875 0.01715088 C5.91617069 0.03955352 8.95181556 0.0897573 11.98828125 0.140625 C14.04620693 0.16068496 16.10415108 0.17893661 18.16210938 0.1953125 C23.20878732 0.23943113 28.25458468 0.3084857 33.30078125 0.390625 C31.86561733 2.60995066 30.41150039 4.80988996 28.91674805 6.98974609 C27.32769996 9.26903233 27.32769996 9.26903233 26.25708008 11.31103516 C25.2578125 12.9296875 25.2578125 12.9296875 22.30078125 15.390625 C17.84018658 16.11646369 13.49175702 15.95458203 8.98828125 15.765625 C7.77076172 15.73855469 6.55324219 15.71148437 5.29882812 15.68359375 C2.29767627 15.61297841 -0.69986587 15.51439472 -3.69921875 15.390625 C-3.69921875 18.030625 -3.69921875 20.670625 -3.69921875 23.390625 C7.52078125 23.390625 18.74078125 23.390625 30.30078125 23.390625 C28.32078125 26.030625 26.34078125 28.670625 24.30078125 31.390625 C23.58535156 32.70160156 22.86992187 34.01257813 22.1328125 35.36328125 C20.46774914 37.70929489 19.69438408 38.30290511 16.84912109 38.93701172 C13.85533115 39.08118566 10.9820053 39.00108795 7.98828125 38.828125 C4.46140625 38.68375 0.93453125 38.539375 -2.69921875 38.390625 C-2.69921875 45.650625 -2.69921875 52.910625 -2.69921875 60.390625 C-9.29921875 60.390625 -15.89921875 60.390625 -22.69921875 60.390625 C-21.04921875 57.750625 -19.39921875 55.110625 -17.69921875 52.390625 C-15.19174285 45.94282983 -14.26792111 39.11817714 -16.78515625 32.5625 C-18.81412924 28.19072796 -18.81412924 28.19072796 -21.69921875 24.390625 C-22.50869365 19.3718806 -22.62787464 16.80744498 -19.796875 12.48828125 C-17.50121892 9.71637886 -15.12380735 7.04971612 -12.69921875 4.390625 C-12.35761719 3.68752197 -12.01601562 2.98441895 -11.6640625 2.26000977 C-8.35600557 -0.88733018 -4.37948493 -0.09773667 0 0 Z " fill="#060566" transform="translate(163.69921875,60.609375)"/>
</svg>
